# xmcd
#
# Track frame offsets: 
#        150
#        19135
#        35633
#        56650
#        72824
#        92491
#        112252
#        126430
#        144648
#        161167
#        176517
#        191176
#        210927
#        223477
#        240043
#
# Disc length: 3442 seconds
#
# Revision: 0
# Processed by: cddbd v1.5.2PL0 Copyright (c) Steve Scherf et al.
# Submitted via: ExactAudioCopyFreeDBPlugin 1.0
#
DISCID=e10d700f
DTITLE=Kacey Jones - Donald Trump'$ Hair
DYEAR=2009
DGENRE=Country
TTITLE0=Donald Trump's Hair
TTITLE1=I Wanna Be Up Front Like Dolly
TTITLE2=I Can Alway Get Skinny But You'll Never Be Tall
TTITLE3=I'm Living Alone And I Like It
TTITLE4=The Bigger The Better
TTITLE5=The Redheaded Man Who Would Not Move
TTITLE6=That's Why I Keep Him
TTITLE7=Chocolate Stuff
TTITLE8=It's Gonna Take One Helluva Man
TTITLE9=Christmas In Rehab
TTITLE10=God Save The Queens
TTITLE11=Whatever Happened To Kenny Roger's Face
TTITLE12=The Glory Of Love
TTITLE13=It's Gonna Take One Helluva Man [Bonus Version]
TTITLE14=I Can Always Get Skinny But You'll Never Be Tall [Radio Edit]
EXTD=
EXTT0=
EXTT1=
EXTT2=
EXTT3=
EXTT4=
EXTT5=
EXTT6=
EXTT7=
EXTT8=
EXTT9=
EXTT10=
EXTT11=
EXTT12=
EXTT13=
EXTT14=
PLAYORDER=
